<mxfile host="app.diagrams.net" modified="2023-01-30T02:24:44.512Z" agent="5.0 (Windows NT 10.0; Win64; x64) AppleWebKit/537.36 (KHTML, like Gecko) Chrome/109.0.0.0 Safari/537.36 Edg/109.0.1518.70" etag="fmEZh3BZkitOQMci522f" version="20.8.13" type="github">
  <diagram id="prtHgNgQTEPvFCAcTncT" name="Page-1">
    <mxGraphModel dx="1430" dy="792" grid="1" gridSize="10" guides="1" tooltips="1" connect="1" arrows="1" fold="1" page="1" pageScale="1" pageWidth="827" pageHeight="1169" math="0" shadow="0">
      <root>
        <mxCell id="0" />
        <mxCell id="1" parent="0" />
        <mxCell id="SwT3wleDd9_EdAsBsz5b-2" value="" style="rounded=0;whiteSpace=wrap;html=1;fillColor=#dae8fc;strokeColor=#6c8ebf;" vertex="1" parent="1">
          <mxGeometry x="20" y="20" width="790" height="460" as="geometry" />
        </mxCell>
        <mxCell id="SwT3wleDd9_EdAsBsz5b-4" value="" style="rounded=0;whiteSpace=wrap;html=1;fillColor=#0050ef;fontColor=#ffffff;strokeColor=#001DBC;" vertex="1" parent="1">
          <mxGeometry x="20" y="20" width="60" height="460" as="geometry" />
        </mxCell>
        <mxCell id="SwT3wleDd9_EdAsBsz5b-5" value="传&lt;br&gt;统&lt;br&gt;Web&lt;br&gt;开&lt;br&gt;发&lt;br&gt;架&lt;br&gt;构&lt;br&gt;图" style="text;html=1;strokeColor=none;fillColor=none;align=center;verticalAlign=middle;whiteSpace=wrap;rounded=0;fontColor=#FFFFFF;" vertex="1" parent="1">
          <mxGeometry x="20" y="177.5" width="60" height="145" as="geometry" />
        </mxCell>
        <mxCell id="SwT3wleDd9_EdAsBsz5b-7" value="" style="rounded=0;whiteSpace=wrap;html=1;fontColor=#333333;fillColor=#f5f5f5;strokeColor=#666666;" vertex="1" parent="1">
          <mxGeometry x="80" y="290" width="730" height="90" as="geometry" />
        </mxCell>
        <mxCell id="SwT3wleDd9_EdAsBsz5b-9" value="" style="rounded=0;whiteSpace=wrap;html=1;fontColor=#333333;fillColor=#f5f5f5;strokeColor=#666666;" vertex="1" parent="1">
          <mxGeometry x="80" y="200" width="730" height="90" as="geometry" />
        </mxCell>
        <mxCell id="SwT3wleDd9_EdAsBsz5b-10" value="" style="rounded=0;whiteSpace=wrap;html=1;fontColor=#333333;fillColor=#f5f5f5;strokeColor=#666666;" vertex="1" parent="1">
          <mxGeometry x="80" y="110" width="730" height="90" as="geometry" />
        </mxCell>
        <mxCell id="SwT3wleDd9_EdAsBsz5b-11" value="" style="rounded=0;whiteSpace=wrap;html=1;fontColor=#333333;fillColor=#f5f5f5;strokeColor=#666666;" vertex="1" parent="1">
          <mxGeometry x="80" y="20" width="730" height="90" as="geometry" />
        </mxCell>
        <mxCell id="SwT3wleDd9_EdAsBsz5b-12" value="" style="rounded=0;whiteSpace=wrap;html=1;fontColor=#333333;fillColor=#f5f5f5;strokeColor=#666666;" vertex="1" parent="1">
          <mxGeometry x="80" y="380" width="730" height="100" as="geometry" />
        </mxCell>
        <mxCell id="SwT3wleDd9_EdAsBsz5b-13" value="运行环境" style="text;html=1;strokeColor=none;fillColor=none;align=center;verticalAlign=middle;whiteSpace=wrap;rounded=0;fontColor=#000000;" vertex="1" parent="1">
          <mxGeometry x="90" y="415" width="60" height="30" as="geometry" />
        </mxCell>
        <mxCell id="SwT3wleDd9_EdAsBsz5b-14" value="资源层" style="text;html=1;strokeColor=none;fillColor=none;align=center;verticalAlign=middle;whiteSpace=wrap;rounded=0;fontColor=#000000;" vertex="1" parent="1">
          <mxGeometry x="90" y="320" width="60" height="30" as="geometry" />
        </mxCell>
        <mxCell id="SwT3wleDd9_EdAsBsz5b-15" value="应用层" style="text;html=1;strokeColor=none;fillColor=none;align=center;verticalAlign=middle;whiteSpace=wrap;rounded=0;fontColor=#000000;" vertex="1" parent="1">
          <mxGeometry x="90" y="230" width="60" height="30" as="geometry" />
        </mxCell>
        <mxCell id="SwT3wleDd9_EdAsBsz5b-16" value="视图层" style="text;html=1;strokeColor=none;fillColor=none;align=center;verticalAlign=middle;whiteSpace=wrap;rounded=0;fontColor=#000000;" vertex="1" parent="1">
          <mxGeometry x="90" y="50" width="60" height="30" as="geometry" />
        </mxCell>
        <mxCell id="SwT3wleDd9_EdAsBsz5b-17" value="控制层" style="text;html=1;strokeColor=none;fillColor=none;align=center;verticalAlign=middle;whiteSpace=wrap;rounded=0;fontColor=#000000;" vertex="1" parent="1">
          <mxGeometry x="90" y="140" width="60" height="30" as="geometry" />
        </mxCell>
        <mxCell id="SwT3wleDd9_EdAsBsz5b-18" value="HTML" style="rounded=1;whiteSpace=wrap;html=1;fontColor=#000000;" vertex="1" parent="1">
          <mxGeometry x="230" y="35" width="120" height="60" as="geometry" />
        </mxCell>
        <mxCell id="SwT3wleDd9_EdAsBsz5b-19" value="JSP" style="rounded=1;whiteSpace=wrap;html=1;fontColor=#000000;" vertex="1" parent="1">
          <mxGeometry x="390" y="35" width="120" height="60" as="geometry" />
        </mxCell>
        <mxCell id="SwT3wleDd9_EdAsBsz5b-20" value="XML" style="rounded=1;whiteSpace=wrap;html=1;fontColor=#000000;" vertex="1" parent="1">
          <mxGeometry x="550" y="35" width="120" height="60" as="geometry" />
        </mxCell>
        <mxCell id="SwT3wleDd9_EdAsBsz5b-21" value="网关" style="rounded=1;whiteSpace=wrap;html=1;fontColor=#000000;" vertex="1" parent="1">
          <mxGeometry x="230" y="125" width="120" height="60" as="geometry" />
        </mxCell>
        <mxCell id="SwT3wleDd9_EdAsBsz5b-22" value="接口" style="rounded=1;whiteSpace=wrap;html=1;fontColor=#000000;" vertex="1" parent="1">
          <mxGeometry x="390" y="125" width="120" height="60" as="geometry" />
        </mxCell>
        <mxCell id="SwT3wleDd9_EdAsBsz5b-25" value="数据库连接" style="rounded=1;whiteSpace=wrap;html=1;fontColor=#000000;" vertex="1" parent="1">
          <mxGeometry x="310" y="220" width="120" height="60" as="geometry" />
        </mxCell>
        <mxCell id="SwT3wleDd9_EdAsBsz5b-26" value="功能服务" style="rounded=1;whiteSpace=wrap;html=1;fontColor=#000000;" vertex="1" parent="1">
          <mxGeometry x="470" y="220" width="120" height="60" as="geometry" />
        </mxCell>
        <mxCell id="SwT3wleDd9_EdAsBsz5b-27" value="DB" style="rounded=1;whiteSpace=wrap;html=1;fontColor=#000000;" vertex="1" parent="1">
          <mxGeometry x="310" y="305" width="120" height="60" as="geometry" />
        </mxCell>
        <mxCell id="SwT3wleDd9_EdAsBsz5b-28" value="Cache" style="rounded=1;whiteSpace=wrap;html=1;fontColor=#000000;" vertex="1" parent="1">
          <mxGeometry x="310" y="400" width="120" height="60" as="geometry" />
        </mxCell>
        <mxCell id="SwT3wleDd9_EdAsBsz5b-29" value="文件服务" style="rounded=1;whiteSpace=wrap;html=1;fontColor=#000000;" vertex="1" parent="1">
          <mxGeometry x="470" y="305" width="120" height="60" as="geometry" />
        </mxCell>
        <mxCell id="SwT3wleDd9_EdAsBsz5b-30" value="认证" style="rounded=1;whiteSpace=wrap;html=1;fontColor=#000000;" vertex="1" parent="1">
          <mxGeometry x="550" y="125" width="120" height="60" as="geometry" />
        </mxCell>
        <mxCell id="SwT3wleDd9_EdAsBsz5b-31" value="系统服务" style="rounded=1;whiteSpace=wrap;html=1;fontColor=#000000;" vertex="1" parent="1">
          <mxGeometry x="470" y="400" width="120" height="60" as="geometry" />
        </mxCell>
      </root>
    </mxGraphModel>
  </diagram>
</mxfile>
